<svg id="filled_outline" height="512" viewBox="0 0 512 512" width="512" xmlns="http://www.w3.org/2000/svg" data-name="filled outline"><path d="m128 96h-48l-16 16v56h32v-40h32z" fill="#d1e3ee"/><path d="m112 224h-64v-64l8-8h48l8 8z" fill="#a9bfd1"/><rect fill="#a9e9ff" height="272" rx="22.841" width="112" x="24" y="216"/><path d="m113.159 216h-40a22.841 22.841 0 0 1 22.841 22.841v226.318a22.841 22.841 0 0 1 -22.841 22.841h40a22.841 22.841 0 0 0 22.841-22.841v-226.318a22.841 22.841 0 0 0 -22.841-22.841z" fill="#88d0ef"/><path d="m104 152h-16l8 8v56h16v-56z" fill="#8da3b2"/><path d="m112 400h96v88h-96z" fill="#2358ad"/><path d="m160 400v36.167a27.833 27.833 0 0 1 -27.833 27.833h-20.167v24h96v-88z" fill="#1c4684"/><path d="m208 408h-96a177.41 177.41 0 0 1 -8.972-49.28l-7.028-174.72h128l-7.028 174.72a177.41 177.41 0 0 1 -8.972 49.28z" fill="#ffa95c"/><path d="m224 184h-128l.644 16h77.188a16.834 16.834 0 0 1 16.82 17.51l-5.68 141.21a177.374 177.374 0 0 1 -8.972 49.28h32a177.374 177.374 0 0 0 8.972-49.28l6.384-158.72z" fill="#d98218"/><path d="m112 432h40v16h-40z" fill="#1c4684"/><path d="m168 440h40" fill="none" stroke="#000" stroke-linejoin="round" stroke-width="16"/><path d="m384 64h-40l-32 32-24-24 40-40h56z" fill="#d35789"/><path d="m384 64h32v56h-32z" fill="#cccbb2"/><path d="m376 24h48v48h-48z" fill="#f6f6e7"/><path d="m368 112h64v80h-64z" fill="#f6f6e7"/><path d="m408 112h24v80h-24z" fill="#cccbb2"/><path d="m488 488h-176v-257.373a54.626 54.626 0 0 1 16-38.627 54.626 54.626 0 0 1 38.627-16h66.746a54.626 54.626 0 0 1 38.627 16 54.626 54.626 0 0 1 16 38.627z" fill="#dd95c1"/><path d="m472 192a54.626 54.626 0 0 0 -38.627-16h-32a54.627 54.627 0 0 1 54.627 54.627v257.373h32v-257.373a54.626 54.626 0 0 0 -16-38.627z" fill="#c17ca9"/><path d="m392.193 248h15.614a48.193 48.193 0 0 1 48.193 48.193v127.807a0 0 0 0 1 0 0h-112a0 0 0 0 1 0 0v-127.807a48.193 48.193 0 0 1 48.193-48.193z" fill="#f6f6e7"/><path d="m423.678 250.688a48.788 48.788 0 0 1 .322 5.5v73.963a53.844 53.844 0 0 1 -53.844 53.849h-26.156v40h112v-127.807a48.2 48.2 0 0 0 -32.322-45.505z" fill="#cccbb2"/><path d="m128 248h64v112h-64z" fill="#1c4684"/><path d="m128 360v-112h64l-6.4 35.2a107.33 107.33 0 0 1 -57.6 76.8z" fill="#2358ad"/><path d="m192 352v-11.156a68.846 68.846 0 0 1 30.656-57.282 68.848 68.848 0 0 1 38.188-11.562h27.156l-2.833 8.5a26.439 26.439 0 0 0 6.388 27.057l.032.032a26.438 26.438 0 0 0 10.334 6.387 26.439 26.439 0 0 1 18.079 25.081v12.943z" fill="#f6f6e7"/><path d="m301.921 313.974a26.429 26.429 0 0 1 -10.334-6.388l-.032-.031a26.439 26.439 0 0 1 -6.388-27.057l2.833-8.498h-16l-2.833 8.5a26.439 26.439 0 0 0 6.388 27.057l.032.031a26.429 26.429 0 0 0 10.334 6.388 26.439 26.439 0 0 1 18.079 25.081v12.943h16v-12.943a26.439 26.439 0 0 0 -18.079-25.083z" fill="#cccbb2"/><path d="m176 344h160v40h-160z" fill="#a9bfd1"/><path d="m168 376h176a0 0 0 0 1 0 0v80.839a31.161 31.161 0 0 1 -31.161 31.161h-113.678a31.161 31.161 0 0 1 -31.161-31.161v-80.839a0 0 0 0 1 0 0z" fill="#f8c09c"/><path d="m312 376v64.839a31.161 31.161 0 0 1 -31.161 31.161h-108.9a31.146 31.146 0 0 0 27.223 16h113.677a31.161 31.161 0 0 0 31.161-31.161v-80.839z" fill="#e2ab8d"/><path d="m304 344h32v32h-32z" fill="#8da3b2"/><path d="m232 344h-16a59.452 59.452 0 0 1 33.044-53.466l3.378-1.689 7.156 14.31-3.378 1.69a43.537 43.537 0 0 0 -24.2 39.155z" fill="#cccbb2"/><path d="m208 408h96v48h-96z" fill="#2f2f3f"/><path d="m304 400h-96a8 8 0 0 0 -8 8v48a8 8 0 0 0 8 8h96a8 8 0 0 0 8-8v-48a8 8 0 0 0 -8-8zm-8 48h-80v-32h80z"/><path d="m440 168.353v-56.353a8 8 0 0 0 -8-8h-8v-24a8 8 0 0 0 8-8v-48a8 8 0 0 0 -8-8h-48a8 8 0 0 0 -8 8h-40a8 8 0 0 0 -5.657 2.343l-40 40a8 8 0 0 0 0 11.314l24 24a8 8 0 0 0 11.314 0l29.656-29.657h20.687a8 8 0 0 0 8 8v24h-8a8 8 0 0 0 -8 8v56.353a62.626 62.626 0 0 0 -56 62.274v75.592a18.463 18.463 0 0 1 -6.714-4.245l-.075-.077a18.339 18.339 0 0 1 -4.454-18.87l2.832-8.5a8 8 0 0 0 -7.589-10.527h-27.156a76.574 76.574 0 0 0 -32.342 7.139l3.492-86.818a8 8 0 0 0 -7.994-8.321h-104v-16a8 8 0 0 0 -2.343-5.657l-8-8a8 8 0 0 0 -5.657-2.343v-8h24a8 8 0 0 0 8-8v-32a8 8 0 0 0 -8-8h-48a8 8 0 0 0 -5.657 2.343l-16 16a8 8 0 0 0 -2.343 5.657v32a8 8 0 0 0 -5.657 2.343l-8 8a8 8 0 0 0 -2.343 5.657v48.774a30.889 30.889 0 0 0 -24 30.067v226.318a30.876 30.876 0 0 0 30.841 30.841h441.159a8 8 0 0 0 8-8v-257.373a62.626 62.626 0 0 0 -56-62.274zm-24-136.353v32h-32v-32zm-72 24a8 8 0 0 0 -5.657 2.343l-26.343 26.344-12.687-12.687 32-32h36.687v16zm48 24h16v24h-16zm32 40v48h-48v-48zm-72 176.192a40.238 40.238 0 0 1 40.193-40.192h15.614a40.238 40.238 0 0 1 40.193 40.192v119.808h-96zm-168 71.808v-16h144v16zm92.968-88a34.2 34.2 0 0 0 8.887 33.168l.075.076a34.6 34.6 0 0 0 13.462 8.319 18.409 18.409 0 0 1 12.35 14.437h-78.993a43.482 43.482 0 0 1 23.451-31.155l3.378-1.69-7.156-14.31-3.378 1.689a59.4 59.4 0 0 0 -32.512 45.466h-16.332a60.835 60.835 0 0 1 60.645-56zm-64.9 1.464a76.642 76.642 0 0 0 -27.916 54.536h-8.152a8 8 0 0 0 -8 8v24a8 8 0 0 0 -8 8v24h-42.132a169.384 169.384 0 0 1 -6.847-41.6l-6.693-166.4h111.344zm-140.068-166.151 11.314-11.313h36.686v16h-24a8 8 0 0 0 -8 8v16h-16zm-16 48 3.314-3.313h41.372l3.314 3.313v12.687h-8a8 8 0 0 0 -7.994 8.321l.953 23.679h-32.959zm-24 301.846v-226.318a14.858 14.858 0 0 1 14.841-14.841h42.759l5.432 135.028a185.3 185.3 0 0 0 8.968 50.233v70.739h-57.159a14.858 14.858 0 0 1 -14.841-14.841zm88-17.159h24v-16h-24v-16h40v40.839a38.948 38.948 0 0 0 7.609 23.161h-47.609zm192 32h-112.839a23.187 23.187 0 0 1 -23.161-23.161v-72.839h160v72.839a23.187 23.187 0 0 1 -23.161 23.161zm168 0h-135.609a38.948 38.948 0 0 0 7.609-23.161v-24.839h104a8 8 0 0 0 8-8v-127.808a56.256 56.256 0 0 0 -56.193-56.192h-15.614a56.256 56.256 0 0 0 -56.193 56.192v39.808h-8.145a34.368 34.368 0 0 0 -7.855-19.018v-86.355a46.626 46.626 0 0 1 46.627-46.627h66.746a46.626 46.626 0 0 1 46.627 46.627z"/></svg>